<svg xmlns="http://www.w3.org/2000/svg" version="1.1" xmlns:xlink="http://www.w3.org/1999/xlink" xmlns:svgjs="http://svgjs.com/svgjs" width="1920" height="1080" preserveAspectRatio="none" viewBox="0 0 1920 1080"><g mask="url(&quot;#SvgjsMask22293&quot;)" fill="none"><rect width="1920" height="1080" x="0" y="0" fill="url(#SvgjsLinearGradient22294)"></rect><path d="M1675.75 554.99 L1950.16 577.6700000000001L1681.9470693041696 697.3379306958304z" stroke="#037b0b" stroke-width="2.13" stroke-dasharray="3, 2"></path><rect width="180" height="180" clip-path="url(&quot;#SvgjsClipPath22295&quot;)" x="349.95" y="1.57" fill="url(#SvgjsPattern22296)" transform="rotate(55.06, 439.95, 91.57)"></rect><rect width="144" height="144" clip-path="url(&quot;#SvgjsClipPath22297&quot;)" x="1202.35" y="705.31" fill="url(#SvgjsPattern22298)" transform="rotate(265.85, 1274.35, 777.31)"></rect><rect width="648" height="648" clip-path="url(&quot;#SvgjsClipPath22299&quot;)" x="1388.75" y="60.86" fill="url(#SvgjsPattern22300)" transform="rotate(161.42, 1712.75, 384.86)"></rect><rect width="168" height="168" clip-path="url(&quot;#SvgjsClipPath22301&quot;)" x="333.06" y="889.45" fill="url(#SvgjsPattern22302)" transform="rotate(14.92, 417.06, 973.45)"></rect><rect width="264" height="264" clip-path="url(&quot;#SvgjsClipPath22303&quot;)" x="831.01" y="835.34" fill="url(#SvgjsPattern22304)" transform="rotate(221.99, 963.01, 967.34)"></rect><path d="M1714.62 60.07L1725.84 66.24 1722.3 78.54 1733.52 84.7 1729.98 97.01 1741.2 103.17 1737.66 115.47" stroke="#d3b714" stroke-width="1" stroke-dasharray="3, 2"></path><path d="M759.3 106.03a5.6 5.6 0 1 0 7.4-8.4 5.6 5.6 0 1 0-7.4 8.4zM769.87 94.02a5.6 5.6 0 1 0 7.4-8.41 5.6 5.6 0 1 0-7.4 8.41zM780.44 82.01a5.6 5.6 0 1 0 7.39-8.41 5.6 5.6 0 1 0-7.39 8.41zM791 70a5.6 5.6 0 1 0 7.4-8.41 5.6 5.6 0 1 0-7.4 8.41z" stroke="#037b0b" stroke-width="1"></path></g><defs><mask id="SvgjsMask22293"><rect width="1920" height="1080" fill="#ffffff"></rect></mask><linearGradient x1="50%" y1="100%" x2="50%" y2="0%" gradientUnits="userSpaceOnUse" id="SvgjsLinearGradient22294"><stop stop-color="rgba(14, 42, 71, 1)" offset="0.21"></stop><stop stop-color="rgba(220, 88, 88, 1)" offset="1"></stop></linearGradient><pattern x="0" y="0" width="6" height="6" patternUnits="userSpaceOnUse" id="SvgjsPattern22296"><path d="M3 1L3 5M1 3L5 3" stroke="#037b0b" fill="none" stroke-width="1"></path></pattern><clipPath id="SvgjsClipPath22295"><circle r="45" cx="439.95" cy="91.57"></circle></clipPath><pattern x="0" y="0" width="6" height="6" patternUnits="userSpaceOnUse" id="SvgjsPattern22298"><path d="M0 6L3 0L6 6" stroke="#d3b714" fill="none"></path></pattern><clipPath id="SvgjsClipPath22297"><circle r="36" cx="1274.35" cy="777.31"></circle></clipPath><pattern x="0" y="0" width="6" height="6" patternUnits="userSpaceOnUse" id="SvgjsPattern22300"><path d="M0 6L3 0L6 6" stroke="#e73635" fill="none"></path></pattern><clipPath id="SvgjsClipPath22299"><circle r="162" cx="1712.75" cy="384.86"></circle></clipPath><pattern x="0" y="0" width="168" height="6" patternUnits="userSpaceOnUse" id="SvgjsPattern22302"><rect width="168" height="3" x="0" y="0" fill="#037b0b"></rect><rect width="168" height="3" x="0" y="3" fill="rgba(0, 0, 0, 0)"></rect></pattern><clipPath id="SvgjsClipPath22301"><circle r="42" cx="417.06" cy="973.45"></circle></clipPath><pattern x="0" y="0" width="264" height="6" patternUnits="userSpaceOnUse" id="SvgjsPattern22304"><rect width="264" height="3" x="0" y="0" fill="#037b0b"></rect><rect width="264" height="3" x="0" y="3" fill="rgba(0, 0, 0, 0)"></rect></pattern><clipPath id="SvgjsClipPath22303"><circle r="66" cx="963.01" cy="967.34"></circle></clipPath></defs></svg>